<svg width="26" height="26" viewBox="0 0 26 26" fill="none" xmlns="http://www.w3.org/2000/svg">
<path d="M2.1665 10.0284C2.1665 8.0797 3.7462 6.5 5.69485 6.5V6.5C6.87457 6.5 7.97623 5.91041 8.63062 4.92883L8.6665 4.875C9.34331 3.85979 10.4827 3.25 11.7028 3.25H14.2968C15.517 3.25 16.6564 3.85979 17.3332 4.875L17.3691 4.92883C18.0234 5.91041 19.1251 6.5 20.3048 6.5V6.5C22.2535 6.5 23.8332 8.0797 23.8332 10.0284V18.75C23.8332 20.9591 22.0423 22.75 19.8332 22.75H6.1665C3.95736 22.75 2.1665 20.9591 2.1665 18.75V10.0284Z" stroke="#F0F4EF" stroke-width="2" stroke-linecap="round" stroke-linejoin="round"/>
<ellipse cx="12.9998" cy="14.0833" rx="4.33333" ry="4.33333" stroke="#F0F4EF" stroke-width="2" stroke-linecap="round" stroke-linejoin="round"/>
</svg>
