<svg width="24" height="24" viewBox="0 0 24 24" fill="none" xmlns="http://www.w3.org/2000/svg">
<path fill-rule="evenodd" clip-rule="evenodd" d="M23.83 0H0V23.8301H23.83V0ZM12.6921 1.74121C12.4355 1.12646 11.5645 1.12646 11.3079 1.74121L8.85132 7.62573C8.74878 7.87158 8.52368 8.04443 8.25989 8.08008L1.79578 8.95508C1.14551 9.04297 0.913818 9.8645 1.42212 10.2793L6.41736 14.3557C6.63879 14.5364 6.73828 14.8274 6.67383 15.1057L5.07666 22.0085C4.92151 22.6787 5.67517 23.1865 6.23816 22.7915L11.5691 19.0498C11.8278 18.8684 12.1722 18.8684 12.4309 19.0498L17.7618 22.7915C18.3248 23.1865 19.0784 22.6787 18.9233 22.0083L17.326 15.1057C17.2615 14.8274 17.361 14.5364 17.5825 14.3557L22.5778 10.2793C23.0862 9.8645 22.8544 9.04297 22.2042 8.95508L15.7401 8.08008C15.5928 8.06006 15.4575 7.99731 15.3489 7.90283C15.2631 7.82837 15.1938 7.73413 15.1486 7.62573L12.6921 1.74121Z" fill="black"/>
</svg>
