<svg width="305" height="305" viewBox="0 0 305 305" fill="none" xmlns="http://www.w3.org/2000/svg">
<rect width="305" height="305" rx="16" fill="#F0F4EF"/>
<path d="M95.875 212.271L98.6863 194.198C98.8949 192.857 99.7564 191.721 101.016 191.216C107.496 188.615 128.906 180.812 152.5 180.812C176.094 180.812 197.504 188.615 203.984 191.216C205.244 191.721 206.105 192.857 206.314 194.198L209.125 212.271" stroke="#344966" stroke-width="7" stroke-linecap="round" stroke-linejoin="round"/>
<path d="M152.5 152.5C169.874 152.5 183.958 138.415 183.958 121.041C183.958 103.667 169.874 89.583 152.5 89.583C135.126 89.583 121.042 103.667 121.042 121.041C121.042 138.415 135.126 152.5 152.5 152.5Z" stroke="#344966" stroke-width="7" stroke-linecap="round" stroke-linejoin="round"/>
</svg>
